<?xml version="1.0" standalone="no"?>
<!DOCTYPE svg PUBLIC "-//W3C//DTD SVG 20010904//EN"
 "http://www.w3.org/TR/2001/REC-SVG-20010904/DTD/svg10.dtd">
<svg version="1.0" xmlns="http://www.w3.org/2000/svg"
 width="1325.000000pt" height="1325.000000pt" viewBox="0 0 1325.000000 1325.000000"
 preserveAspectRatio="xMidYMid meet">
<metadata>
Created by potrace 1.14, written by Peter Selinger 2001-2017
</metadata>
<g transform="translate(0.000000,1325.000000) scale(0.100000,-0.100000)"
fill="#000000" stroke="none">
<path d="M1438 10602 c-31 -3 -38 -7 -39 -25 -1 -24 -3 -38 -23 -147 -8 -41
-18 -93 -21 -115 -4 -22 -9 -51 -11 -65 -3 -14 -9 -47 -14 -75 -11 -60 -16
-84 -35 -200 -8 -49 -17 -101 -20 -115 -3 -14 -10 -52 -15 -85 -14 -82 -19
-112 -30 -170 -5 -27 -12 -63 -14 -80 -13 -80 -17 -102 -21 -125 -18 -86 -36
-191 -41 -225 -2 -16 -8 -52 -14 -80 -5 -27 -12 -66 -15 -85 -3 -19 -12 -71
-20 -115 -8 -44 -17 -96 -20 -115 -5 -31 -17 -96 -20 -110 -1 -3 -5 -27 -10
-55 -4 -27 -9 -59 -11 -70 -2 -11 -7 -36 -10 -55 -4 -19 -8 -44 -10 -55 -2
-11 -7 -36 -10 -55 -3 -19 -14 -81 -25 -138 -10 -56 -21 -117 -23 -135 -3 -17
-8 -44 -11 -59 -3 -16 -7 -40 -10 -55 -3 -16 -9 -53 -15 -83 -5 -30 -12 -68
-14 -85 -3 -16 -24 -133 -46 -260 -22 -126 -42 -243 -45 -260 -3 -16 -10 -52
-15 -80 -5 -27 -12 -68 -16 -90 -3 -22 -7 -47 -9 -55 -2 -8 -6 -28 -9 -45 -3
-16 -14 -84 -26 -150 -11 -66 -23 -135 -26 -154 -3 -18 -8 -43 -10 -55 -2 -11
-18 -100 -35 -196 -50 -289 -48 -275 -59 -335 -13 -66 -19 -102 -26 -145 -3
-19 -21 -123 -40 -230 -20 -107 -37 -206 -39 -220 -4 -22 -44 -252 -60 -340
-46 -261 -67 -378 -70 -401 -2 -16 -6 -36 -9 -46 -3 -10 -7 -35 -10 -55 -3
-21 -13 -77 -22 -125 -14 -80 -53 -306 -68 -393 -4 -19 -11 -57 -16 -85 -10
-52 -14 -76 -27 -154 -4 -25 -8 -48 -8 -51 -1 -3 -5 -25 -9 -50 -5 -25 -10
-54 -12 -65 -2 -11 -13 -72 -24 -135 -11 -63 -22 -126 -25 -140 -3 -14 -10
-52 -15 -85 -5 -33 -12 -69 -14 -80 -2 -11 -7 -40 -11 -65 -4 -25 -9 -52 -10
-61 -2 -9 -6 -32 -9 -50 -3 -19 -7 -43 -10 -54 -8 -41 -20 -110 -21 -120 -1
-11 -15 -88 -21 -120 -3 -11 -7 -36 -10 -55 -3 -19 -11 -66 -18 -103 -7 -37
-10 -69 -7 -71 3 -2 2669 -4 5923 -4 l5917 0 6 42 c4 22 9 50 11 61 8 43 34
192 39 230 4 22 8 47 10 55 2 8 7 31 10 50 3 19 12 71 20 115 8 44 16 94 19
110 2 17 9 55 15 85 6 30 13 69 16 85 2 17 7 40 9 51 2 12 7 39 10 60 4 22 11
62 16 89 5 28 12 66 15 85 6 37 42 247 51 290 2 14 7 41 10 60 3 19 9 52 14
73 4 20 5 39 1 41 -3 2 -2313 3 -5134 3 -2820 0 -5129 2 -5131 4 -2 2 3 32 10
67 7 34 15 79 19 100 3 20 10 63 16 94 5 32 12 68 14 80 2 13 22 124 44 248
21 124 43 245 47 270 4 25 8 47 9 50 0 3 4 27 9 53 4 27 10 59 12 70 3 12 7
33 9 47 11 66 25 147 30 170 6 32 25 136 30 175 3 17 7 41 10 55 4 22 27 149
41 235 3 17 9 48 14 70 5 22 11 58 15 80 3 22 14 90 25 150 41 233 69 391 74
420 4 27 41 234 51 295 3 14 7 36 10 50 3 14 7 39 10 55 2 17 7 44 10 60 3 17
10 55 15 85 5 30 12 71 16 90 4 19 7 42 9 50 1 8 5 29 8 45 4 17 9 46 12 65 2
19 7 46 9 60 3 13 8 40 11 60 3 20 8 47 10 60 10 49 17 85 20 105 5 34 25 149
30 175 3 14 7 39 10 55 9 51 14 85 46 260 16 94 32 181 34 195 4 28 47 270 70
395 8 44 17 98 21 120 3 22 7 47 10 56 4 16 390 17 5135 17 2822 0 5134 3
5137 7 4 3 12 36 18 73 7 37 23 132 38 212 14 80 34 199 46 265 11 66 22 129
24 140 2 11 15 83 29 160 14 77 28 156 31 175 3 19 8 46 10 60 14 73 34 192
40 231 3 20 7 42 10 50 3 8 7 32 10 54 3 22 8 51 11 65 15 71 16 90 9 91 -39
2 -11778 3 -11806 1z"/>
</g>
</svg>
